<svg width="11" height="17" viewBox="0 0 11 17" fill="none" xmlns="http://www.w3.org/2000/svg">
    <path d="M1.21345 16.9905C1.62026 16.9905 1.88393 16.7796 2.52427 16.1543L5.4322 13.2765C5.46233 13.2388 5.53013 13.2388 5.56027 13.2765L8.47573 16.1543C9.11607 16.7796 9.37221 16.9905 9.78655 16.9905C10.3892 16.9905 10.7659 16.5762 10.7659 15.8982V2.74471C10.7659 1.24554 9.98242 0.454529 8.49833 0.454529H2.49414C1.01004 0.454529 0.226562 1.24554 0.226562 2.74471V15.8982C0.226562 16.5762 0.603237 16.9905 1.21345 16.9905ZM1.92913 14.512C1.83119 14.6099 1.71066 14.5798 1.71066 14.4367V2.84264C1.71066 2.23996 2.012 1.94616 2.61468 1.94616H8.37779C8.98047 1.94616 9.28181 2.23996 9.28181 2.84264V14.4367C9.28181 14.5798 9.16881 14.6099 9.06334 14.512L5.99721 11.5438C5.6808 11.2274 5.3192 11.2274 4.99526 11.5438L1.92913 14.512Z" fill="#00AFFF"/>
</svg>