<svg width="30" height="38" viewBox="0 0 30 38" fill="none" xmlns="http://www.w3.org/2000/svg">
    <path d="M29.4691 1.24777C29.4691 0.609948 28.952 0.0928566 28.3142 0.0928566H3.90484C2.0444 0.0928566 0.530902 1.60636 0.530902 3.4668V34.5332C0.530902 36.3936 2.0444 37.9071 3.90484 37.9071H28.3142C28.952 37.9071 29.4691 37.3901 29.4691 36.7522V1.24777ZM27.1592 31.1593H7.27878V2.40268H27.1592V31.1593ZM3.90484 2.40268H4.96896V31.1593H3.90484C3.53313 31.1593 3.17543 31.2202 2.84072 31.3318V3.4668C2.84072 2.88008 3.31813 2.40268 3.90484 2.40268ZM27.1592 35.5973H3.90484C3.31813 35.5973 2.84072 35.1199 2.84072 34.5332C2.84072 33.9465 3.31813 33.4691 3.90484 33.4691H27.1592V35.5973Z" fill="white" stroke="white" stroke-width="0.1"/>
    <path d="M14.8879 21.6137L15.4211 20.1535H18.6672L19.2004 21.6137C19.3715 22.0823 19.8141 22.3729 20.2853 22.3728C20.4169 22.3728 20.5507 22.3502 20.6814 22.3024C21.2805 22.0837 21.5889 21.4206 21.3701 20.8215L18.129 11.9454C17.9626 11.4897 17.5292 11.1866 17.0442 11.1866C16.5591 11.1866 16.1257 11.4898 15.9593 11.9454L12.7182 20.8215C12.4995 21.4206 12.8079 22.0837 13.407 22.3024C14.0057 22.5211 14.6692 22.2129 14.8879 21.6137ZM16.2646 17.8437L17.0442 15.7086L17.8238 17.8437H16.2646Z" fill="white" stroke="white" stroke-width="0.1"/>
</svg>