<svg width="34" height="27" viewBox="0 0 34 27" fill="none" xmlns="http://www.w3.org/2000/svg">
    <path d="M5.51145 19.5661H28.5262L30.2213 12.6479C30.2338 12.6479 30.2589 12.6479 30.284 12.6479C32.0293 12.6479 33.4607 11.2165 33.4607 9.4587C33.4607 7.71344 32.0419 6.28208 30.284 6.28208C28.5262 6.28208 27.1074 7.726 27.1074 9.4587C27.1074 9.93582 27.2079 10.4004 27.3962 10.8022L23.755 13.4263C23.3784 13.69 23.1147 13.6021 22.9138 13.3008L18.582 6.89731C19.5363 6.34486 20.1892 5.30273 20.1892 4.12248C20.1892 2.37722 18.7578 0.945862 17.0126 0.945862C15.2422 0.945862 13.8234 2.37722 13.8234 4.12248C13.8234 5.30273 14.4763 6.34486 15.4305 6.89731L11.0988 13.3008C10.8979 13.5896 10.6719 13.6774 10.3078 13.4138L6.61636 10.7519C6.79214 10.3627 6.89259 9.92326 6.89259 9.4587C6.89259 7.726 5.46123 6.28208 3.71597 6.28208C1.95816 6.28208 0.526794 7.71344 0.526794 9.4587C0.526794 11.2165 1.95816 12.6479 3.71597 12.6479C3.74108 12.6479 3.77875 12.6479 3.80386 12.6479L5.51145 19.5661ZM5.98857 21.5625L6.40291 23.2324C6.9177 25.3041 8.04772 26.3588 10.2073 26.3588H23.8178C25.9774 26.3588 27.1074 25.3292 27.6097 23.2324L28.024 21.5625H5.98857Z" fill="white"/>
</svg>