<svg width="20" height="19" viewBox="0 0 20 19" fill="none" xmlns="http://www.w3.org/2000/svg">
    <path d="M12.2826 11.9506V13.4573H15.8158C18.1813 13.4573 19.6278 12.0561 19.6278 10.1426C19.6278 8.54548 18.7162 7.25725 17.2171 6.66211C17.2246 3.25697 14.7687 0.801056 11.6121 0.801056C9.60824 0.801056 8.10154 1.83314 7.15986 3.1967C5.35936 2.75223 3.23492 4.11579 3.15958 6.24023C1.43441 6.53404 0.372192 7.9654 0.372192 9.7885C0.372192 11.815 1.91656 13.4573 4.42521 13.4573H7.6872V11.9506H4.42521C2.78291 11.9506 1.89396 10.9713 1.89396 9.75837C1.89396 8.34961 2.82057 7.36272 4.3574 7.36272C4.47041 7.36272 4.51561 7.30245 4.50807 7.19698C4.46287 4.952 6.0675 4.22879 7.6872 4.7034C7.78514 4.726 7.84541 4.71093 7.89061 4.62806C8.61382 3.30971 9.73631 2.30022 11.6046 2.30022C13.9701 2.30022 15.6576 4.17606 15.7706 6.3683C15.7932 6.76757 15.7631 7.21205 15.733 7.57366C15.7179 7.67913 15.7631 7.73939 15.861 7.75446C17.2397 8.01813 18.106 8.81668 18.106 10.0748C18.106 11.1747 17.3376 11.9506 15.7857 11.9506H12.2826ZM9.98491 18.0678C10.1733 18.0678 10.3315 18 10.5198 17.8267L13.051 15.4461C13.1866 15.3256 13.2544 15.1825 13.2544 15.0017C13.2544 14.6476 12.9682 14.3915 12.6216 14.3915C12.4484 14.3915 12.2751 14.4668 12.147 14.6024L11.0999 15.6571L10.6177 16.2146L10.6931 15.0996V8.63588C10.6931 8.26674 10.3767 7.9428 9.98491 7.9428C9.60071 7.9428 9.27677 8.26674 9.27677 8.63588V15.0996L9.35964 16.2146L8.86996 15.6571L7.82281 14.6024C7.69474 14.4668 7.52147 14.3915 7.3482 14.3915C7.00166 14.3915 6.72292 14.6476 6.72292 15.0017C6.72292 15.1825 6.78319 15.3256 6.91879 15.4461L9.45004 17.8267C9.63838 18 9.80411 18.0678 9.98491 18.0678Z" fill="white"/>
</svg>