<svg width="22" height="21" viewBox="0 0 22 21" fill="none" xmlns="http://www.w3.org/2000/svg">
    <path d="M10.99 20.9911C16.6853 20.9911 21.3862 16.2902 21.3862 10.6049C21.3862 4.91964 16.6752 0.21875 10.9799 0.21875C5.29467 0.21875 0.603821 4.91964 0.603821 10.6049C0.603821 16.2902 5.30471 20.9911 10.99 20.9911ZM10.99 18.9219C6.37949 18.9219 2.69311 15.2154 2.69311 10.6049C2.69311 5.99442 6.37949 2.29799 10.9799 2.29799C15.5904 2.29799 19.2969 5.99442 19.3069 10.6049C19.317 15.2154 15.6005 18.9219 10.99 18.9219ZM14.8873 11.1674C15.3092 10.9263 15.2991 10.3136 14.8873 10.0725L9.10159 6.65737C8.65962 6.40625 8.07703 6.61719 8.07703 7.10938V14.1205C8.07703 14.6127 8.62949 14.8538 9.10159 14.5725L14.8873 11.1674Z" fill="white"/>
</svg>